<?xml version="1.0" encoding="utf-8"?>
<!-- Generator: Adobe Illustrator 19.1.0, SVG Export Plug-In . SVG Version: 6.00 Build 0)  -->
<svg version="1.1" id="Layer_1" xmlns="http://www.w3.org/2000/svg" xmlns:xlink="http://www.w3.org/1999/xlink" x="0px" y="0px"
	 viewBox="0 0 1024 1024" style="enable-background:new 0 0 1024 1024;" xml:space="preserve">
<style type="text/css">
	.st0{fill:#F75C5C;}
	.st1{opacity:0.95;fill:#FFFFFF;}
	.st2{fill:#FFFFFF;}
	.st3{opacity:0.5;fill:#FFFFFF;}
</style>
<rect x="0" class="st0" width="1024" height="1024"/>
<g>
	<g>
		<path class="st1" d="M619.7,1039.2h-48.4c0-31.7-0.1-71.6-0.2-108.6c-0.1-48.3-0.2-90.1-0.1-105.2l0-0.6
			c8.5-249.2,97.6-344.9,328.9-353.1l0.9,0l222.6,0.5l-0.1,49.3L901.1,521c-205.5,7.4-274.1,81.6-281.7,305.2
			c-0.1,15.1,0,58.4,0.1,104.3C619.6,967.5,619.7,1007.5,619.7,1039.2z"/>
	</g>
	<path class="st2" d="M450,1024h-48V757.5c0-124.6,46-239.4,129.5-323.9C614.9,349.2,728.3,303,850.8,303H1141v48H850.8
		c-109.6,0-211.1,41.8-285.3,116.8C491.1,543,453.6,642.4,450,757.5C450,824.1,450,1024,450,1024z"/>
	<path class="st2" d="M318.3,1033l-1.5-291.7c2.4-145.3,58.8-278.4,159-375.1C574.6,270.7,707.7,218,850.5,218H1152v49H850.5
		c-272.2,0-480.8,204.1-485.3,474.4l0,6.4l1.4,284.8L318.3,1033z"/>
	<path class="st2" d="M535,1062h-49V810.3c0-117.6,32.1-238.2,117.7-318c85.4-79.6,196.5-104.3,322-104.3H1223v46H925.7
		c-112.3,0-211.4,20.2-287.4,91.1c-76.1,71-99.3,176.6-103.3,285.2C535,873.2,535,1062,535,1062z"/>
</g>
<g>
	<rect x="-14.4" y="218" class="st3" width="1037.8" height="47.7"/>
	<rect x="-13.9" y="303.1" class="st3" width="1038.9" height="47"/>
	<rect x="-15.9" y="388.2" class="st3" width="1038.9" height="47"/>
	<rect x="-15.6" y="472" class="st3" width="1038.9" height="47"/>
</g>
</svg>
