<?xml version="1.0" encoding="utf-8"?>
<!-- Generator: Adobe Illustrator 19.1.0, SVG Export Plug-In . SVG Version: 6.00 Build 0)  -->
<svg version="1.1" id="Layer_1" xmlns="http://www.w3.org/2000/svg" xmlns:xlink="http://www.w3.org/1999/xlink" x="0px" y="0px"
	 viewBox="-83 -92.1 1024 1024" style="enable-background:new -83 -92.1 1024 1024;" xml:space="preserve">
<style type="text/css">
	.st0{fill:#FF2534;}
	.st1{opacity:0.5;fill:#FFFFFF;enable-background:new    ;}
	.st2{fill:#FFFFFF;enable-background:new    ;}
	.st3{fill:#FFFFFF;}
</style>
<rect x="-83" y="-92.1" class="st0" width="1024" height="1024"/>
<g>
	<rect x="-83" y="125.9" class="st1" width="1024.4" height="48.7"/>
	<rect x="-83" y="211" class="st1" width="1024" height="48"/>
	<polygon class="st1" points="-83,295.1 941,295.1 941,343 -83,344 	"/>
	<rect x="-83" y="379.9" class="st1" width="1024.3" height="48"/>
</g>
<g>
	<g>
		<path class="st2" d="M941.4,380.1l-0.4,48.6c0,0-90.1,0.2-122.9,0.2c-205.6,3.3-274.1,81.6-281.7,305.2
			c-0.1,15.1,0,58.4,0.1,104.3c0.1,37,0.2,61.8,0.2,93.5h-48.4c0-31.7-0.1-56.4-0.2-93.4c-0.1-48.3-0.2-90.1-0.1-105.2v-0.6
			c8.5-249.2,95.2-344.7,326.5-352.9"/>
	</g>
	<path class="st3" d="M367,931.9h-48V665.4c0-124.6,46-239.4,129.5-323.9c83.4-84.4,196.8-130.6,319.3-130.6H941v48H767.8
		c-109.6,0-211.1,41.8-285.3,116.8C408.1,450.9,370.6,550.3,367,665.4C367,732,367,931.9,367,931.9z"/>
	<path class="st3" d="M235.3,931.9l-1.5-282.7c2.4-145.3,58.8-278.4,159-375.1c98.8-95.5,231.9-148.2,374.7-148.2H941v49H767.5
		c-272.2,0-480.8,204.1-485.3,474.4v6.4l1.4,276.2H235.3z"/>
	<path class="st3" d="M452,931.9h-49V717.2c0-117.6,32.1-238.2,117.7-318c85.4-79.6,196.5-104.3,322-104.3H941v48h-98.3
		c-112.3,0-211.4,18.2-287.4,89.1C479.2,503,456,608.6,452,717.2C452,780.1,452,931.9,452,931.9z"/>
</g>
</svg>
