<?xml version="1.0" encoding="iso-8859-1"?>
<!-- Generator: Adobe Illustrator 16.0.0, SVG Export Plug-In . SVG Version: 6.00 Build 0)  -->
<!DOCTYPE svg PUBLIC "-//W3C//DTD SVG 1.1//EN" "http://www.w3.org/Graphics/SVG/1.1/DTD/svg11.dtd">
<svg version="1.1" id="Capa_1" xmlns="http://www.w3.org/2000/svg" xmlns:xlink="http://www.w3.org/1999/xlink" x="0px" y="0px"
	 width="500px" height="500px" viewBox="0 0 500 500" style="enable-background:new 0 0 500 500;" xml:space="preserve">
<g>
	<path d="M193.838,302.879v45.846l-110.637-0.017v148.015h333.598v-118.08l-110.4,0.009v-75.763h0.014 M162.986,456.021h-50.003l0,0
		v-9.988l9.118-8.232c15.388-13.785,22.88-21.707,23.097-29.938c0-5.742-3.467-10.301-11.598-10.301
		c-6.072,0-11.394,3.047-15.08,5.862l-4.671-11.833c5.323-4.022,13.561-7.274,23.111-7.274c15.946,0,24.734,9.327,24.734,22.141
		c0,11.818-8.571,21.259-18.783,30.373l-6.494,5.423v0.222h26.575v13.552h-0.007V456.021L162.986,456.021z M356.867,443.391h-6.721
		v-11.833h6.395c5.529-0.101,12.586-2.174,12.586-8.127c0-4.208-3.473-7.365-10.422-7.365c-5.75,0-11.824,2.48-14.74,4.223
		l-3.371-11.938c4.223-2.713,12.689-5.314,21.813-5.314c15.07,0,23.424,7.929,23.424,17.574c0,7.475-4.223,13.353-12.91,16.366
		v0.222c8.471,1.535,15.318,7.93,15.318,17.12c-0.016,12.492-10.967,21.612-28.885,21.612c-9.102,0-16.811-2.392-20.916-4.996
		l3.354-12.363c2.939,1.52,9.66,4.337,16.385,4.337c8.574,0,12.895-4.132,12.895-9.435
		C371.063,446.534,364.121,443.391,356.867,443.391z M255.723,397.144L255.723,397.144h-15.966V341.25h-0.204l-13.463,6.41
		l-2.712-12.389l18.658-8.666h13.687V397.144z"/>
</g>
</svg>
