<?xml version="1.0" encoding="utf-8"?>
<!-- Generator: Adobe Illustrator 16.0.0, SVG Export Plug-In . SVG Version: 6.00 Build 0)  -->
<!DOCTYPE svg PUBLIC "-//W3C//DTD SVG 1.1//EN" "http://www.w3.org/Graphics/SVG/1.1/DTD/svg11.dtd">
<svg version="1.1" id="Layer_1" xmlns="http://www.w3.org/2000/svg" xmlns:xlink="http://www.w3.org/1999/xlink" x="0px" y="0px"
	 width="526px" height="526px" viewBox="0 0 126 126" xml:space="preserve">
<path d="M8.637,16.625v92.75h108.727v-92.75H8.637z M101.901,47.625v-14.5h12.321v-0.5h-12.321v-13h12.462v43.852
	c-0.132-0.129-0.281-0.238-0.426-0.352h0.285v-0.5h-1.058c-0.727-0.386-1.542-0.625-2.421-0.625s-1.694,0.239-2.421,0.625h-2.013
	l-4.408-2.789V48.125h12.321v-0.5H101.901z M107.1,63.125h0.45c-0.066,0.053-0.131,0.105-0.195,0.161L107.1,63.125z M110.744,64
	c1.77,0,3.209,1.439,3.209,3.209s-1.439,3.209-3.209,3.209s-3.209-1.439-3.209-3.209S108.974,64,110.744,64z M101.901,62.202
	l0.668,0.423h-0.668V62.202z M85.096,52.325c0-1.055,0.518-1.983,1.306-2.569v5.139C85.614,54.309,85.096,53.38,85.096,52.325z
	 M86.901,49.453c0.426-0.209,0.898-0.337,1.403-0.337c1.77,0,3.209,1.439,3.209,3.209s-1.439,3.209-3.209,3.209
	c-0.505,0-0.978-0.128-1.403-0.337V49.453z M91.358,48.125h10.043V59.52l-8.277-5.236c0.247-0.605,0.389-1.265,0.389-1.958
	C93.514,50.597,92.658,49.073,91.358,48.125z M86.901,19.625h14.5v13h-14.5V19.625z M101.401,33.125v14.5h-10.89
	c-0.672-0.317-1.415-0.509-2.207-0.509c-0.489,0-0.954,0.09-1.403,0.217V33.125H101.401z M71.901,19.625h14.5v13h-14.5V19.625z
	 M71.901,33.125h14.5v14.363c-0.104,0.041-0.203,0.089-0.304,0.137H71.901V33.125z M71.901,48.125h13.35
	c-1.3,0.948-2.156,2.472-2.156,4.2c0,0.9,0.25,1.735,0.654,2.475l-10.938,7.825h-0.91V48.125z M72.112,63.125l-0.211,0.151v-0.151
	H72.112z M68.634,63.125h2.768v0.509l-1.443,1.032C69.62,64.067,69.172,63.547,68.634,63.125z M56.901,59.048l3.543,3.577h-3.543
	V59.048z M65.44,64c1.77,0,3.209,1.439,3.209,3.209s-1.439,3.209-3.209,3.209s-3.209-1.439-3.209-3.209S63.67,64,65.44,64z
	 M56.901,19.625h14.5v13h-14.5V19.625z M56.901,33.125h14.5v14.5h-14.5V33.125z M71.401,48.125v14.5h-3.541
	C67.134,62.239,66.318,62,65.44,62c-0.815,0-1.577,0.205-2.264,0.539l-6.274-6.334v-8.08H71.401z M56.401,55.701l-7.504-7.576h7.504
	V55.701z M41.901,19.625h14.5v13h-14.5V19.625z M56.401,33.125v14.5h-8l-1.448-1.462c0.333-0.686,0.535-1.444,0.535-2.256
	c0-2.872-2.337-5.209-5.209-5.209c-0.129,0-0.251,0.029-0.378,0.038v-5.611H56.401z M39.071,43.907c0-1.463,0.99-2.687,2.331-3.071
	v6.143C40.061,46.594,39.071,45.37,39.071,43.907z M41.901,40.736c0.125-0.015,0.249-0.038,0.378-0.038
	c1.77,0,3.209,1.439,3.209,3.209s-1.439,3.209-3.209,3.209c-0.129,0-0.253-0.023-0.378-0.038V40.736z M26.901,19.625h14.5v13h-14.5
	V19.625z M26.901,33.125h14.5v5.662c-2.453,0.42-4.331,2.549-4.331,5.12c0,0.858,0.229,1.656,0.597,2.37l-0.931,1.348h-9.836V33.125
	z M36.392,48.125l-9.49,13.736V48.125H36.392z M26.401,19.625v13H11.777v0.5h14.624v14.5H11.777v0.5h14.624v14.46l-0.028,0.04
	H11.777v0.5h14.251l-2.235,3.234c-0.906-0.764-2.061-1.242-3.335-1.242c-2.872,0-5.209,2.337-5.209,5.209
	c0,1.426,0.578,2.719,1.51,3.66l-3.544,3.639h-1.438v0.5h0.951l-1.091,1.12v-59.62H26.401z M17.249,70.326
	c0-1.77,1.439-3.209,3.209-3.209s3.209,1.439,3.209,3.209s-1.439,3.209-3.209,3.209S17.249,72.096,17.249,70.326z M26.401,92.625
	H11.777v0.5h14.624v13.25H11.637V82.11l3.882-3.985h10.882V92.625z M16.006,77.625l2.433-2.498c0.621,0.263,1.303,0.408,2.019,0.408
	c2.872,0,5.209-2.337,5.209-5.209c0-0.841-0.219-1.625-0.575-2.328l1.309-1.895v11.521H16.006z M41.401,106.375h-14.5v-13.25h14.5
	V106.375z M41.401,92.625h-14.5v-14.5h14.5V92.625z M41.401,77.625h-14.5V65.38l1.558-2.255h12.942V77.625z M28.805,62.625
	l10.018-14.5h0.425c0.629,0.453,1.359,0.766,2.153,0.902v13.598H28.805z M56.401,106.375h-14.5v-13.25h14.5V106.375z M56.401,92.625
	h-14.5v-14.5h14.5V92.625z M56.401,77.625h-14.5v-14.5h14.5V77.625z M41.901,62.625V49.078c0.127,0.009,0.249,0.038,0.378,0.038
	c1.134,0,2.176-0.374,3.032-0.991h0.77l10.32,10.418v4.082H41.901z M71.401,106.375h-14.5v-13.25h14.5V106.375z M71.401,92.625
	h-14.5v-14.5h14.5V92.625z M56.901,77.625v-14.5h4.039l0.628,0.634c-0.822,0.921-1.337,2.122-1.337,3.45
	c0,2.872,2.337,5.209,5.209,5.209s5.209-2.337,5.209-5.209c0-0.185-0.036-0.359-0.054-0.538l0.807-0.577v11.531H56.901z
	 M86.401,106.375h-14.5v-13.25h14.5V106.375z M86.401,92.625h-14.5v-14.5h14.5V92.625z M86.401,77.625h-14.5v-11.89l3.649-2.61
	h10.851V77.625z M76.25,62.625l8.781-6.281c0.413,0.337,0.867,0.619,1.37,0.818v5.463H76.25z M101.401,106.375h-14.5v-13.25h14.5
	V106.375z M101.401,92.625h-14.5v-14.5h14.5V92.625z M101.401,77.625h-14.5v-14.5h14.5V77.625z M86.901,62.625v-5.308
	c0.449,0.127,0.914,0.217,1.403,0.217c1.46,0,2.777-0.607,3.724-1.579l9.373,5.931v0.739H86.901z M101.901,106.375v-13.25h12.321
	v-0.5h-12.321v-14.5h12.321v-0.5h-12.321v-14.5h1.459l2.755,1.743c-0.359,0.707-0.581,1.495-0.581,2.341
	c0,2.872,2.337,5.209,5.209,5.209c1.407,0,2.681-0.566,3.62-1.477v35.434H101.901z"/>
</svg>
